<svg xmlns="http://www.w3.org/2000/svg" viewBox="0 0 48 48"><defs><style>.cls-1{fill:#5582a0;}.cls-2{fill:#fff;}</style></defs><title>iconcircle_java</title><g id="Layer_1" data-name="Layer 1"><circle class="cls-1" cx="24" cy="24" r="24"/></g><g id="Layer_2" data-name="Layer 2"><path class="cls-2" d="M20.73,31.9s-1.24.72.88,1a18.62,18.62,0,0,0,6.74-.29,11.72,11.72,0,0,0,1.79.87c-6.37,2.73-14.42-.16-9.41-1.56" transform="translate(-1 -1)"/><path class="cls-2" d="M20,28.33s-1.39,1,.74,1.25a26.29,26.29,0,0,0,8.69-.42,3.86,3.86,0,0,0,1.34.82C23,32.24,14.44,30.16,20,28.33" transform="translate(-1 -1)"/><path class="cls-2" d="M26.51,22.29c1.57,1.81-.41,3.43-.41,3.43s4-2.06,2.16-4.63c-1.71-2.4-3-3.6,4.08-7.71,0,0-11.14,2.78-5.82,8.91" transform="translate(-1 -1)"/><path class="cls-2" d="M34.94,34.53s.92.76-1,1.34c-3.68,1.11-15.3,1.45-18.53,0-1.16-.51,1-1.21,1.7-1.35a4.42,4.42,0,0,1,1.12-.13c-1.29-.91-8.35,1.79-3.58,2.56,13,2.11,23.68-.95,20.31-2.47" transform="translate(-1 -1)"/><path class="cls-2" d="M21.33,24.64s-5.91,1.4-2.09,1.91a44.42,44.42,0,0,0,7.82-.08c2.45-.21,4.91-.65,4.91-.65a10.38,10.38,0,0,0-1.49.8c-6,1.58-17.61.84-14.27-.77a11.19,11.19,0,0,1,5.12-1.21" transform="translate(-1 -1)"/><path class="cls-2" d="M31.94,30.57c6.11-3.17,3.28-6.22,1.31-5.81a4.57,4.57,0,0,0-.7.19,1.11,1.11,0,0,1,.52-.4c3.9-1.37,6.9,4-1.26,6.19a.53.53,0,0,0,.12-.16" transform="translate(-1 -1)"/><path class="cls-2" d="M28.26,6.73s3.38,3.38-3.21,8.58c-5.28,4.17-1.2,6.55,0,9.27C22,21.8,19.7,19.35,21.22,17.07c2.23-3.35,8.4-5,7-10.34" transform="translate(-1 -1)"/><path class="cls-2" d="M21.93,39.17c5.86.38,14.86-.21,15.07-3,0,0-.41,1.05-4.84,1.89a48.18,48.18,0,0,1-14.83.23s.75.62,4.6.87" transform="translate(-1 -1)"/></g></svg>